HIERARCHY
ROOT ui
{
	 OFFSET 0 0 0
	 CHANNELS 3 XPosition YPosition Z Position
	 EndSite
	 {
	 OFFSET 0 -1 0
	 }
}
ROOT li
{
	 OFFSET 0 0 0
	 CHANNELS 3 XPosition YPosition Z Position
	 EndSite
	 {
	 OFFSET 0 -1 0
	 }
}
ROOT ul
{
	 OFFSET 0 0 0
	 CHANNELS 3 XPosition YPosition Z Position
	 EndSite
	 {
	 OFFSET 0 -1 0
	 }
}
ROOT ll
{
	 OFFSET 0 0 0
	 CHANNELS 3 XPosition YPosition Z Position
	 EndSite
	 {
	 OFFSET 0 -1 0
	 }
}
ROOT tt
{
	 OFFSET 0 0 0
	 CHANNELS 3 XPosition YPosition Z Position
	 EndSite
	 {
	 OFFSET 0 -1 0
	 }
}
ROOT tb
{
	 OFFSET 0 0 0
	 CHANNELS 3 XPosition YPosition Z Position
	 EndSite
	 {
	 OFFSET 0 -1 0
	 }
}
ROOT td
{
	 OFFSET 0 0 0
	 CHANNELS 3 XPosition YPosition Z Position
	 EndSite
	 {
	 OFFSET 0 -1 0
	 }
}
ROOT v
{
	 OFFSET 0 0 0
	 CHANNELS 3 XPosition YPosition Z Position
	 EndSite
	 {
	 OFFSET 0 -1 0
	 }
}
ROOT bn
{
	 OFFSET 0 0 0
	 CHANNELS 3 XPosition YPosition Z Position
	 EndSite
	 {
	 OFFSET 0 -1 0
	 }
}
MOTION
Frames: 27
Frame Time: 0.002
-0.04074929428100586	-0.00272404408454895	0		0.43130413818359375	-2.317231689453125	0		-0.9232972412109375	0.20456591796875	0		-0.4998367004394531	-2.722193115234375	0		1.694244384765625	-0.4807929992675781	0		3.454802734375	-0.29020401000976564	0		4.64667626953125	-0.3078137817382812	0		5.9493818359375	0.41577102661132814	0		-0.025617494583129882	6.01991455078125	0		
0.012294628143310548	-0.0050712480545043945	0		0.4760763854980469	-2.336433837890625	0		-0.9181788940429687	0.20703962707519533	0		-0.551631591796875	-2.71573095703125	0		1.6804581298828125	-0.4729680786132813	0		3.447841064453125	-0.292482666015625	0		4.634767578125	-0.3069956970214844	0		5.9453095703125	0.4074639587402344	0		-0.008415214538574219	6.03018798828125	0		
-0.03359795379638672	0.003309730052947998	0		0.4293083190917969	-2.322032470703125	0		-0.90908154296875	0.21446238708496093	0		-0.541473876953125	-2.706322509765625	0		1.6906304931640626	-0.4615401000976562	0		3.471819580078125	-0.2922791442871094	0		4.6309404296875	-0.2952996520996094	0		5.95838720703125	0.41387875366210936	0		0.02557482719421387	6.0341875	0		
0.011253210067749023	0.0021403229236602785	0		0.4643372802734375	-2.3140263671875	0		-0.9142938842773437	0.21014881896972656	0		-0.5504176025390625	-2.69656591796875	0		1.6904925537109374	-0.46191714477539064	0		3.4599580078125	-0.2764353942871094	0		4.64657421875	-0.30892449951171874	0		5.9582587890625	0.4145400085449219	0		0.023430469512939454	6.03682958984375	0		
-0.037049999237060545	-0.001401505947113037	0		0.4351219482421875	-2.313892333984375	0		-0.9294314575195313	0.21602748107910155	0		-0.515690673828125	-2.700545166015625	0		1.6902554931640625	-0.4622720031738281	0		3.435533203125	-0.28735794067382814	0		4.62949365234375	-0.299959716796875	0		5.9490146484375	0.4143804016113281	0		0.04006106185913086	6.032166015625	0		
0.011541428565979004	-0.0065940279960632325	0		0.43072674560546875	-2.319166015625	0		-0.929765869140625	0.21567051696777345	0		-0.5848482055664063	-2.69170947265625	0		1.6960648193359376	-0.4547078552246094	0		3.4492705078125	-0.28391400146484375	0		4.61921728515625	-0.29709002685546876	0		5.95253955078125	0.4060232849121094	0		-0.009633668899536133	6.01466650390625	0		
0.010266816139221192	0.0010988260507583617	0		0.43442349243164063	-2.3145546875	0		-0.9301807861328125	0.215337646484375	0		-0.5462218017578125	-2.6917109375	0		1.69972509765625	-0.451083251953125	0		3.42172705078125	-0.2917353210449219	0		4.61675634765625	-0.30033087158203126	0		5.9533984375	0.4217416381835937	0		0.0051135320663452145	6.02708251953125	0		
0.009784638404846191	8.023560047149658E-4	0		0.43805169677734374	-2.309916259765625	0		-0.9215460815429688	0.22187503051757812	0		-0.5765155639648437	-2.682498046875	0		1.661339599609375	-0.4457078552246094	0		3.442520263671875	-0.27635919189453123	0		4.61143310546875	-0.29149310302734377	0		5.95291162109375	0.42150897216796873	0		0.019753870010375978	6.03752587890625	0		
-0.04068093872070312	0.005395011901855469	0		0.4355015869140625	-2.31214404296875	0		-0.9220903930664063	0.2215972900390625	0		-0.5519278564453125	-2.677203125	0		1.66387109375	-0.4420089111328125	0		3.43067333984375	-0.2943961181640625	0		4.61089453125	-0.2917089233398438	0		5.94722802734375	0.4133953857421875	0		0.003957396030426026	6.0265185546875	0		
0.0037386260032653807	0.005384084224700928	0		0.43493756103515624	-2.312375244140625	0		-0.922683837890625	0.22135025024414062	0		-0.5874308471679688	-2.67384423828125	0		1.663285400390625	-0.44222589111328126	0		3.461304931640625	-0.2821276550292969	0		4.60620458984375	-0.29782192993164064	0		5.94177099609375	0.42131304931640623	0		0.01750071144104004	6.03803955078125	0		
0.0039742190837860104	-0.00283599591255188	0		0.45719781494140627	-2.32096826171875	0		-0.9292263793945312	0.22623741149902343	0		-0.5530820922851563	-2.677656494140625	0		1.6698004150390624	-0.4345314636230469	0		3.42360107421875	-0.28665341186523435	0		4.5997197265625	-0.28986865234375	0		5.9460009765625	0.413095703125	0		0.0016144870519638063	6.02709521484375	0		
0.007377713203430176	-7.65950009226799E-5	0		0.4037071838378906	-2.313224853515625	0		-0.9198953247070313	0.22488278198242187	0		-0.5747103881835938	-2.67847412109375	0		1.6740545654296874	-0.44076727294921875	0		3.418854736328125	-0.292712890625	0		4.6090400390625	-0.2921545715332031	0		5.95048486328125	0.420910888671875	0		-0.018019060134887695	6.03224951171875	0		
0.009792072296142578	0.0037327349185943604	0		0.46209136962890623	-2.31337109375	0		-0.9164840087890626	0.2286630859375	0		-0.5800890502929688	-2.664536376953125	0		1.68948974609375	-0.43615988159179686	0		3.44221826171875	-0.29221990966796874	0		4.5963916015625	-0.29202841186523437	0		5.94982568359375	0.4208482666015625	0		0.01731334114074707	6.0354921875	0		
0.009144449234008789	0.0036270110607147217	0		0.4345126647949219	-2.311008056640625	0		-0.922048095703125	0.23363011169433595	0		-0.5488260498046875	-2.67219775390625	0		1.684780029296875	-0.4401741943359375	0		3.41990380859375	-0.2729057312011719	0		4.6019013671875	-0.28317764282226565	0		5.95717138671875	0.4206839599609375	0		0.014620468139648438	6.03742041015625	0		
0.005445548057556152	-3.9439600706100465E-4	0		0.4567904052734375	-2.31846875	0		-0.9277498779296875	0.22963017272949218	0		-0.5873973388671875	-2.670627685546875	0		1.6841552734375	-0.44022454833984376	0		3.42103662109375	-0.28696441650390625	0		4.586173828125	-0.288929931640625	0		5.9523984375	0.4127621154785156	0		0.013906655311584472	6.03734716796875	0		
0.004840167999267578	-4.365690052509308E-4	0		0.4292562255859375	-2.31604248046875	0		-0.923290771484375	0.23348851013183594	0		-0.5628827514648438	-2.666107177734375	0		1.68355615234375	-0.4402427978515625	0		3.4163330078125	-0.2928885498046875	0		4.58557275390625	-0.2889068603515625	0		5.951078125	0.42981927490234373	0		0.015940881729125975	6.021255859375	0		
0.004267087936401367	-4.4873499870300295E-4	0		0.4396127014160156	-2.32223583984375	0		-0.9189535522460938	0.22837799072265624	0		-0.6135977783203125	-2.676270751953125	0		1.687057373046875	-0.4362994689941406	0		3.39978369140625	-0.291577392578125	0		4.58810595703125	-0.2829043579101562	0		5.95534423828125	0.4208096923828125	0		-0.021543598175048827	6.03187548828125	0		
0.006799852848052979	0.0035159659385681154	0		0.40433914184570313	-2.308616455078125	0		-0.910356689453125	0.23622592163085937	0		-0.5849266967773438	-2.66676025390625	0		1.69266455078125	-0.42836178588867185	0		3.3986630859375	-0.2674970703125	0		4.5806787109375	-0.27670132446289064	0		5.95993896484375	0.4288275451660156	0		-0.022167894363403322	6.0318916015625	0		
-0.001674780011177063	0.004696269989013672	0		0.45675344848632815	-2.316470703125	0		-0.9149207153320312	0.23232498168945312	0		-0.623357177734375	-2.66507666015625	0		1.6891102294921876	-0.4322410278320313	0		3.404019775390625	-0.2765038452148437	0		4.576087890625	-0.2825201721191406	0		5.95845703125	0.4299769897460938	0		-0.0038387250900268556	6.026611328125	0		
0.002792141914367676	-3.194519877433777E-4	0		0.42734564208984377	-2.315900146484375	0		-0.9153712158203124	0.23238006591796875	0		-0.5647725830078125	-2.666023681640625	0		1.688669677734375	-0.43214666748046876	0		3.4156435546875	-0.27258895874023437	0		4.5697998046875	-0.2732812194824219	0		5.95800341796875	0.4301357421875	0		0.028720993041992188	6.0321162109375	0		
0.002393991947174072	-2.2808699309825897E-4	0		0.42698297119140627	-2.31580224609375	0		-0.91577294921875	0.23245736694335936	0		-0.6400848999023437	-2.662662841796875	0		1.6882781982421875	-0.4320294494628906	0		3.400422119140625	-0.2621910400390625	0		4.57935302734375	-0.2762898864746094	0		5.9575986328125	0.430318359375	0		-0.0048671050071716305	6.026771484375	0		
0.0020471680164337158	-1.1730799823999405E-4	0		0.4287229309082031	-2.312719482421875	0		-0.906141845703125	0.23138371276855468	0		-0.59358447265625	-2.67436083984375	0		1.7017998046875	-0.4401297607421875	0		3.395994873046875	-0.2669586181640625	0		4.57187548828125	-0.2839876403808594	0		5.9572451171875	0.43052163696289064	0		-0.004324717998504639	6.025865234375	0		
0.009735358238220216	-0.0011261160373687744	0		0.4393617248535156	-2.31877197265625	0		-0.8923900756835937	0.23425804138183592	0		-0.6138334350585938	-2.67390283203125	0		1.7117158203125	-0.42814791870117186	0		3.41578759765625	-0.26211947631835936	0		4.573943359375	-0.26282611083984375	0		5.97421435546875	0.44645028686523436	0		-0.02165900230407715	6.02928125	0		
0.004581439018249512	0.004098859786987305	0		0.4552070007324219	-2.31589697265625	0		-0.9075292358398438	0.24063877868652345	0		-0.6048966064453125	-2.665926025390625	0		1.7012802734375	-0.43980889892578123	0		3.384896484375	-0.24140142822265626	0		4.5857060546875	-0.26281808471679685	0		5.96983251953125	0.43875335693359374	0		-0.005046353816986084	6.0261328125	0		
0.0013275949954986573	3.0128398537635805E-4	0		0.42606109619140625	-2.31524658203125	0		-0.90771923828125	0.24077542114257813	0		-0.607074951171875	-2.667750244140625	0		1.701100830078125	-0.4396315002441406	0		3.382561279296875	-0.25016246032714845	0		4.57655908203125	-0.26044305419921876	0		5.960640625	0.43915032958984374	0		-0.021528274536132812	6.01455712890625	0		
0.002057020902633667	-0.007556758880615235	0		0.45087423706054686	-2.320505615234375	0		-0.9078577270507813	0.24091896057128906	0		-0.5664622192382812	-2.68529541015625	0		1.7009730224609374	-0.43944708251953124	0		3.376567138671875	-0.24185105895996092	0		4.56443017578125	-0.26000997924804686	0		5.9604990234375	0.43940142822265627	0		0.012339756965637208	6.02013671875	0		
0.0011073299646377564	6.206099987030029E-4	0		0.3979515075683594	-2.312439453125	0		-0.8971181640625	0.2308811492919922	0		-0.636376708984375	-2.67695703125	0		1.711689453125	-0.4514435119628906	0		3.3994990234375	-0.24102639770507814	0		4.57021240234375	-0.26787713623046877	0		5.9694052734375	0.4395042724609375	0		-0.0057363491058349605	6.0266025390625	0		
